<?xml version="1.0" encoding="utf-8"?>
<!-- Generator: Adobe Illustrator 22.1.0, SVG Export Plug-In . SVG Version: 6.00 Build 0)  -->
<svg version="1.1" id="Layer_1" xmlns="http://www.w3.org/2000/svg" xmlns:xlink="http://www.w3.org/1999/xlink" x="0px" y="0px"
	 viewBox="0 0 894.4 538.6" style="enable-background:new 0 0 894.4 538.6;" xml:space="preserve">
<style type="text/css">
	.st0{fill:#00BCE2;}
</style>
<g>
	<path class="st0" d="M717.1,286.7c-33.2,0-60.2-26.7-60.5-59.6c-0.2-32.9,27.1-60.2,60.2-60.3c33-0.2,60.5,27.1,60.7,60
		C777.7,259.5,750.4,286.7,717.1,286.7 M811.5,234.3c2.5-30.2-7.6-56.5-30.7-76.7c-29.8-26.2-64.3-32-101-16.9
		c-31.6,13-50.3,37.6-56,71.2c-4.5,26.5,1.3,50.9,18,72.1c21.1,26.9,49.4,38.6,83.6,36.2c2.4-0.2,3.9,0.3,5.2,2.6
		c8.4,14.4,18.4,30.2,18.4,30.2h39.2c0,0-17.1-25.8-27.7-42.4c1.5-0.9,2.8-1.6,4.1-2.5C792,290.7,808.9,266.6,811.5,234.3"/>
	<path class="st0" d="M574.7,304.6h-0.4c-3.2-6-6.5-12-9.8-18c-8.2-15-16.3-30-24.6-45.1c4-2.1,7.8-3.9,11.2-6.1
		c21.9-13.4,32-37.3,26-60.4c-6.6-24.9-28.7-42.2-54.9-42.5c-15.7-0.2-31.4-0.2-47.1-0.1v0l-34.2-0.1v32v150.9h34.3v-5.3
		c0.1-0.7,0-1.3,0-2.1v-144h12.4c10.1,0,20.2-0.1,30.3,0c16.3,0.2,28.1,13.1,26.4,28.7c-1.4,12.8-12.3,22.7-26.4,23.1
		c-8.8,0.2-17.7,0.2-26.5,0.2l14.5,30.5c10.8,21.5,21.8,43,32.6,64.6c0.5,0.9,1,1.7,1.6,2.4l1,1.9h39.2L574.7,304.6z"/>
	<path class="st0" d="M392.9,286.5h-0.2l-76.6-167.7l-5.5,13.6L226,315.2h35.7c0,0,2.9-6,6.1-13l0-0.2c3.2-6.8,39.7-87.9,48.6-107.7
		c9.1,19.7,49.3,107.8,49.3,107.8c3.2,6.8,6.1,12.8,6.1,12.8l34.4,0.1L392.9,286.5z"/>
	<path class="st0" d="M114.3,163.5c6.8,0,13.6-0.1,20.3,0.2c13,0.6,20.7,11,19.8,23.5c-0.8,10.2-5.5,17.9-16,20.9
		c-1.9,0.6-3.9,0.8-5.8,0.8c-6.8,0.1-13.5,0.1-20.2,0l13,28.7c4.3,0,8.6,0.1,12.9,0.2c11.7,0.4,20.6,9.8,21,21.6
		c0.2,5.5-1.4,10.7-4.3,15c-3.4,4.2-8.1,7-13.7,7.3c-11.7,0.8-23.5,0.2-35.5,0.2v-41.6h0v-32.6v-5.6v-38.8
		C108.7,163.5,111.5,163.4,114.3,163.5 M168,222.6c-0.8-0.3-1.6-0.8-3.2-1.6c1.3-0.8,2.3-1.4,3.3-2c2.5-1.4,4.8-3.1,6.9-4.9
		c20.6-16.6,22.4-47.6,2.3-66.4c-11.4-10.7-25.4-15.2-40.9-15.3c-9.1,0-104.7,0.1-104.7,0.1l13.7,30.6h24.5V314
		c0,0,50.2,0.9,72.5,0.4c13.1-0.3,25-4.7,35.5-12.8c5.1-3.9,9.2-8.9,12.2-14.5C202.8,265.5,198.4,234.1,168,222.6"/>
	<path class="st0" d="M246.4,361.3c-5.3-2.1-8.3-3-13.7-3c-5.8,0-12.8,2.1-12.8,9.7c0,14,31.4,10.7,31.4,34.6
		c0,15.5-12,21.6-26.7,21.6c-5.1,0-10.2-1.5-15-3l1.1-9.7c3.6,1.5,9.8,3.6,15.2,3.6c5.9,0,14.4-3.3,14.4-11.9
		c0-16.2-31.4-11.7-31.4-34.3c0-12.9,10.3-19.7,23.5-19.7c4.8,0,10.6,0.8,15.6,2.6L246.4,361.3z"/>
	<polygon class="st0" points="312.7,350.4 291.4,382.9 269.6,350.4 257.4,350.4 286,392.6 286,422.9 296.5,422.9 296.5,392.6 
		325,350.4 	"/>
	<path class="st0" d="M368.7,361.3c-5.4-2.1-8.3-3-13.7-3c-5.9,0-12.8,2.1-12.8,9.7c0,14,31.4,10.7,31.4,34.6
		c0,15.5-12.1,21.6-26.7,21.6c-5.1,0-10.2-1.5-15-3l1-9.7c3.6,1.5,9.8,3.6,15.2,3.6c6,0,14.4-3.3,14.4-11.9
		c0-16.2-31.4-11.7-31.4-34.3c0-12.9,10.2-19.7,23.5-19.7c4.8,0,10.6,0.8,15.6,2.6L368.7,361.3z"/>
	<polygon class="st0" points="379.6,350.4 379.6,359.5 402.4,359.5 402.4,422.9 412.9,422.9 412.9,359.5 435.6,359.5 435.6,350.4 	
		"/>
	<polygon class="st0" points="446.6,350.4 446.6,422.9 487.6,422.9 487.6,413.7 457.1,413.7 457.1,389.8 484.9,389.8 484.9,380.7 
		457.1,380.7 457.1,359.5 487.6,359.5 487.6,350.4 	"/>
	<polygon class="st0" points="567.2,350.4 544.7,410.6 521.7,350.4 504.4,350.4 504.4,422.9 514.9,422.9 514.9,360.1 515.1,360.1 
		539.3,422.9 549.6,422.9 573.8,360.1 574,360.1 574,422.9 584.5,422.9 584.5,350.4 	"/>
	<path class="st0" d="M636.4,361.3c-5.3-2.1-8.3-3-13.7-3c-5.9,0-12.8,2.1-12.8,9.7c0,14,31.4,10.7,31.4,34.6
		c0,15.5-12.1,21.6-26.7,21.6c-5.1,0-10.2-1.5-15-3l1.1-9.7c3.6,1.5,9.8,3.6,15.2,3.6c6,0,14.4-3.3,14.4-11.9
		c0-16.2-31.4-11.7-31.4-34.3c0-12.9,10.3-19.7,23.5-19.7c4.8,0,10.6,0.8,15.6,2.6L636.4,361.3z"/>
</g>
</svg>
